<?xml version="1.0" encoding="utf-8"?>
<!-- Generator: Adobe Illustrator 21.0.0, SVG Export Plug-In . SVG Version: 6.00 Build 0)  -->
<svg version="1.1" id="Layer_1" xmlns="http://www.w3.org/2000/svg" xmlns:xlink="http://www.w3.org/1999/xlink" x="0px" y="0px"
	 viewBox="0 0 750 750" enable-background="new 0 0 750 750" xml:space="preserve">
<linearGradient id="SVGID_1_" gradientUnits="userSpaceOnUse" x1="375.25" y1="67.7499" x2="375.25" y2="683.5">
	<stop  offset="7.297298e-02" style="stop-color:#5EDBFF"/>
	<stop  offset="0.1587" style="stop-color:#55D4FF"/>
	<stop  offset="0.3006" style="stop-color:#3CC0FF"/>
	<stop  offset="0.4799" style="stop-color:#139FFF"/>
	<stop  offset="0.5541" style="stop-color:#0090FF"/>
	<stop  offset="0.7472" style="stop-color:#006AE3"/>
	<stop  offset="1" style="stop-color:#0033BB"/>
</linearGradient>
<circle fill="url(#SVGID_1_)" stroke="#000000" stroke-width="35" stroke-miterlimit="10" cx="375.3" cy="372.3" r="337.3"/>
<linearGradient id="SVGID_2_" gradientUnits="userSpaceOnUse" x1="375.25" y1="91.342" x2="375.25" y2="656.6005">
	<stop  offset="0" style="stop-color:#00DDFF"/>
	<stop  offset="0.1912" style="stop-color:#00C8FF"/>
	<stop  offset="0.585" style="stop-color:#0093FF"/>
	<stop  offset="1" style="stop-color:#0055FF"/>
</linearGradient>
<circle fill="url(#SVGID_2_)" cx="375.3" cy="372.3" r="309.6"/>
<path d="M308,290.8c0,20.1-7,38.5-18.7,53c0,0-39-8.8-65.4-8.8c-26.4,0-65.4,8.9-65.4,8.9c-11.8-14.5-18.8-32.9-18.8-53
	c0-46.5,37.7-84.2,84.2-84.2S308,244.3,308,290.8z"/>
<circle fill="#FFFFFF" cx="187.5" cy="256.9" r="25.3"/>
<path d="M84,165c0,0,5-79,121-101c89.8-17,122.8,40.9,122.8,40.9s-88-19.5-142.3,0C112.9,131,84,165,84,165z"/>
<path d="M665.5,162.7c0,0-17.6-79.7-120-98.7c-90.8-16.9-131.8,40.9-131.8,40.9s87-19.5,141.3,0C627.6,131,665.5,162.7,665.5,162.7z
	"/>
<path d="M611,290.8c0,20.1-7,38.5-18.7,53c0,0-39-8.8-65.4-8.8c-26.4,0-65.4,8.9-65.4,8.9c-11.8-14.5-18.8-32.9-18.8-53
	c0-46.5,37.7-84.2,84.2-84.2C573.3,206.6,611,244.3,611,290.8z"/>
<circle fill="#FFFFFF" cx="492.5" cy="256.9" r="25.3"/>
<path fill="#220000" stroke="#000000" stroke-width="12" stroke-miterlimit="10" d="M104.1,384.5c0,0,108.7,34,278.2,34
	c149.8,0,264.8-34,264.8-34c-7,149.5-139,250-271.8,250C183,634.5,100,456,104.1,384.5z"/>
<path fill="#440011" d="M405,550.5c0,49-5.6,75.3-27,76.5c-131,7.5-250-100-267-225.5c0,0,90.5,45.5,287,45
	C398,446.5,405,501.5,405,550.5z"/>
<path fill="#AA1133" stroke="#000000" stroke-width="5" stroke-miterlimit="10" d="M343.5,629.5c-59.8-2-113.6-41.2-113.6-41.2
	c8.2-22,32.2-50.4,77.7-50.4c44.7,0,50.4,9.1,67.4,26.2"/>
<path fill="#AA1133" stroke="#000000" stroke-width="5" stroke-miterlimit="10" d="M360.1,576.8c18.7-19.9,33.8-38.9,70-41.9
	c59-0.5,93,28.5,93,51.4c0,0-79.6,52.7-182.1,43.1"/>
<path fill="#EE3366" d="M336.6,571.8c-5.1,7.2-6.3,6-24.4,7.2c-11.6,0.8-20.8-1.3-20.8-1.3c-7.5-3.6-11.8-9.8-11.8-18.3
	c3.3-10.8,16.3-13.1,32.5-11.8C324.6,548.7,348.5,555,336.6,571.8z"/>
<path fill="#EE3366" d="M448.8,578.2c-4.1,6.2-11.3,8.3-24.6,8.3c-20.6,0-28-6-28.4-14.1c-1.2-27.7,19.8-29,32.8-28.8
	C440.9,543.9,466.7,551,448.8,578.2z"/>
</svg>
