<?xml version="1.0" encoding="utf-8"?>
<!-- Generator: Adobe Illustrator 21.0.0, SVG Export Plug-In . SVG Version: 6.00 Build 0)  -->
<svg version="1.1" id="Layer_1" xmlns="http://www.w3.org/2000/svg" xmlns:xlink="http://www.w3.org/1999/xlink" x="0px" y="0px"
	 viewBox="0 0 750 750" enable-background="new 0 0 750 750" xml:space="preserve">
<linearGradient id="SVGID_1_" gradientUnits="userSpaceOnUse" x1="375.25" y1="67.7499" x2="375.25" y2="683.5">
	<stop  offset="4.848460e-02" style="stop-color:#EE8822"/>
	<stop  offset="0.1396" style="stop-color:#F07F1E"/>
	<stop  offset="0.2904" style="stop-color:#F66613"/>
	<stop  offset="0.4811" style="stop-color:#FF3D01"/>
	<stop  offset="0.4894" style="stop-color:#FF3B00"/>
	<stop  offset="0.6261" style="stop-color:#DB2604"/>
	<stop  offset="0.7854" style="stop-color:#B81108"/>
	<stop  offset="0.9158" style="stop-color:#A2050A"/>
	<stop  offset="1" style="stop-color:#9A000B"/>
</linearGradient>
<circle fill="url(#SVGID_1_)" stroke="#000000" stroke-width="35" stroke-miterlimit="10" cx="375.3" cy="372.3" r="337.3"/>
<linearGradient id="SVGID_2_" gradientUnits="userSpaceOnUse" x1="375.25" y1="91.342" x2="375.25" y2="656.6005">
	<stop  offset="0" style="stop-color:#FF7700"/>
	<stop  offset="0.1466" style="stop-color:#FF7200"/>
	<stop  offset="0.3094" style="stop-color:#FF6500"/>
	<stop  offset="0.4799" style="stop-color:#FF4F00"/>
	<stop  offset="0.6558" style="stop-color:#FF3000"/>
	<stop  offset="0.8343" style="stop-color:#FF0800"/>
	<stop  offset="0.8676" style="stop-color:#FF0000"/>
	<stop  offset="0.9432" style="stop-color:#FF000C"/>
	<stop  offset="1" style="stop-color:#FF0022"/>
</linearGradient>
<circle fill="url(#SVGID_2_)" cx="375.3" cy="372.3" r="309.6"/>
<g>
	<g>
		<path d="M183.1,166.3c17.4,10.3,34.7,20.6,52.1,30.9c27.7,16.4,55.3,32.8,83,49.2c6.3,3.8,12.7,7.5,19,11.3
			c7,4.1,16.5,1.6,20.5-5.4c4.1-7.1,1.6-16.4-5.4-20.5c-17.4-10.3-34.7-20.6-52.1-30.9c-27.7-16.4-55.3-32.8-83-49.2
			c-6.3-3.8-12.7-7.5-19-11.3c-7-4.1-16.5-1.6-20.5,5.4C173.6,152.8,176.1,162.1,183.1,166.3L183.1,166.3z"/>
	</g>
</g>
<g>
	<g>
		<path d="M408.9,259c17.2-10.7,34.5-21.4,51.7-32.1c27.3-16.9,54.7-33.9,82-50.8c6.3-3.9,12.7-7.8,19-11.8
			c6.9-4.3,9.5-13.4,5.4-20.5c-4-6.9-13.6-9.7-20.5-5.4c-17.2,10.7-34.5,21.4-51.7,32.1c-27.3,16.9-54.7,33.9-82,50.8
			c-6.3,3.9-12.7,7.8-19,11.8c-6.9,4.3-9.5,13.4-5.4,20.5C392.4,260.4,402,263.2,408.9,259L408.9,259z"/>
	</g>
</g>
<path d="M312.8,311.9c0,24.7-9.9,44.6-28.3,58.3c0,0-27-4.9-43.9-4.9c-16.9,0-50.1,4.9-50.1,4.9c-18.4-13.7-28.3-33.6-28.3-58.3
	c0-35.3,24.3-64.9,57-73c5.8-1.5,31.4-1.3,37.6,0.3C289.1,247.7,312.8,277.1,312.8,311.9z"/>
<path d="M586.8,311.9c0,24.7-9.9,44.6-28.3,58.3c0,0-27-4.9-43.9-4.9c-16.9,0-50.1,4.9-50.1,4.9c-18.4-13.7-28.3-33.6-28.3-58.3
	c0-35.3,24.3-64.9,57-73c5.8-1.5,31.4-1.3,37.6,0.3C563.1,247.7,586.8,277.1,586.8,311.9z"/>
<circle fill="#FFFFFF" cx="478.4" cy="286.3" r="21.1"/>
<circle fill="#FFFFFF" cx="206.4" cy="286.3" r="21.1"/>
<g>
	<g>
		<path d="M213.5,466.6c2.7,11.8,15.6,12.7,24.2,8c3.2-1.8,6.3-3.6,9.5-5.4c5.4-3,10.8-5.8,16.3-8.4c3.4-1.6,6.9-3.2,10.3-4.7
			c0.5-0.2,1.1-0.5,1.6-0.7c0.1,0-3,1.2-1.5,0.6c1-0.4,2-0.8,3-1.2c2.1-0.8,4.2-1.7,6.3-2.5c9.2-3.5,18.6-6.5,28.1-9
			c5.2-1.4,10.3-2.6,15.6-3.6c2.8-0.6,5.7-1.1,8.5-1.6c1.2-0.2,2.5-0.4,3.7-0.6c1.1-0.2,5.5-0.8,2.3-0.4c12.2-1.6,24.6-2.4,37-2.2
			c6.5,0.1,12.9,0.4,19.4,1c1.7,0.2,3.4,0.3,5.1,0.5c0.7,0.1,5.2,0.7,2.7,0.3c3.5,0.5,7,1.1,10.5,1.7c35.7,6.7,67,20.6,97.2,40.7
			c6.7,4.5,16.6,1.3,20.5-5.4c4.3-7.4,1.4-16-5.4-20.5c-50.3-33.5-110-52-170.7-47.9c-40.5,2.7-79.8,14.2-115.9,32.5
			c-5.1,2.6-10.1,5.3-15,8.1c-1.5,0.9-3,1.7-4.5,2.6c-0.4,0.2-0.9,0.5-1.3,0.7c-0.1,0.1-0.3,0.1-0.4,0.2c2.6-2,8.2-2.2,11.1-1.4
			c2.2,1.3,4.4,2.6,6.6,3.9c0,0,0,0,0,0c1.3,2.2,2.6,4.4,3.9,6.6c0,0,0,0,0,0c-1.8-7.9-10.9-12.6-18.5-10.5
			C215.8,450.3,211.7,458.6,213.5,466.6L213.5,466.6z"/>
	</g>
</g>
<g>
	<g>
		<path d="M317.4,505.9c34.4,17.6,79.1,17.9,113.8,0c4.3-2.2,0.5-8.7-3.8-6.5c-9.9,5.1-21.3,8.1-32.2,10.1
			c-25.2,4.6-51.2,1.5-74-10.1C316.9,497.2,313.1,503.7,317.4,505.9L317.4,505.9z"/>
	</g>
</g>
</svg>
