<?xml version="1.0" encoding="utf-8"?>
<!-- Generator: Adobe Illustrator 21.0.0, SVG Export Plug-In . SVG Version: 6.00 Build 0)  -->
<svg version="1.1" id="Layer_1" xmlns="http://www.w3.org/2000/svg" xmlns:xlink="http://www.w3.org/1999/xlink" x="0px" y="0px"
	 viewBox="0 0 750 750" enable-background="new 0 0 750 750" xml:space="preserve">
<linearGradient id="SVGID_1_" gradientUnits="userSpaceOnUse" x1="375.25" y1="67.7499" x2="375.25" y2="683.5">
	<stop  offset="4.848460e-02" style="stop-color:#FFFF44"/>
	<stop  offset="0.1502" style="stop-color:#FDF641"/>
	<stop  offset="0.3186" style="stop-color:#F9DD37"/>
	<stop  offset="0.5327" style="stop-color:#F1B329"/>
	<stop  offset="0.7815" style="stop-color:#E77B14"/>
	<stop  offset="1" style="stop-color:#DD4400"/>
</linearGradient>
<circle fill="url(#SVGID_1_)" stroke="#000000" stroke-width="35" stroke-miterlimit="10" cx="375.3" cy="372.3" r="337.3"/>
<linearGradient id="SVGID_2_" gradientUnits="userSpaceOnUse" x1="375.25" y1="91.342" x2="375.25" y2="656.6005">
	<stop  offset="0" style="stop-color:#FFFF00"/>
	<stop  offset="0.1474" style="stop-color:#FFFA00"/>
	<stop  offset="0.3111" style="stop-color:#FFED00"/>
	<stop  offset="0.4826" style="stop-color:#FFD700"/>
	<stop  offset="0.6596" style="stop-color:#FFB800"/>
	<stop  offset="0.8389" style="stop-color:#FF9000"/>
	<stop  offset="1" style="stop-color:#FF6600"/>
</linearGradient>
<circle fill="url(#SVGID_2_)" cx="375.3" cy="372.3" r="309.6"/>
<g>
	<g>
		<path d="M112.5,180.8c32.7-16.5,66.2-19.6,101.8-21.3c29.7-1.4,62.3-1.8,88.2-18.5c6.8-4.4,9.6-13.3,5.4-20.5
			c-4-6.8-13.7-9.8-20.5-5.4c-2.8,1.8-5.8,3.4-8.8,4.9c-1.6,0.7-1.5,0.7,0.1,0c-0.8,0.3-1.6,0.6-2.4,0.9c-1.6,0.6-3.2,1.2-4.8,1.7
			c-6.3,2-12.9,3.3-19.4,4.3c3.4-0.5-2.3,0.3-2.9,0.3c-1.9,0.2-3.8,0.4-5.7,0.6c-3.9,0.3-7.8,0.6-11.7,0.8
			c-7.9,0.5-15.9,0.8-23.8,1.2c-38.5,2-75.9,7.6-110.7,25.1c-7.2,3.6-9.3,13.8-5.4,20.5C96.3,182.8,105.3,184.5,112.5,180.8
			L112.5,180.8z"/>
	</g>
</g>
<path d="M308,311.5c0,26.9-10.8,49.5-30.7,64.4c0,0-30.4-1.3-48.7-1.3c-18.3,0-53.4,1.3-53.4,1.3c-20-14.9-30.7-37.6-30.7-64.4
	c0-45.2,36.6-81.8,81.8-81.8S308,266.3,308,311.5z"/>
<path d="M605,313.3c0,26.8-10.7,49.4-30.7,64.3c0,0-29.3-1.3-47.6-1.3c-18.3,0-54.3,1.3-54.3,1.3c-19.9-14.9-30.7-37.5-30.7-64.3
	c0-45.1,36.5-81.6,81.6-81.6S605,268.2,605,313.3z"/>
<circle fill="#FFFFFF" cx="487.4" cy="285.5" r="22.9"/>
<circle fill="#FFFFFF" cx="192.2" cy="283.6" r="23"/>
<g>
	<g>
		<path d="M323.9,496.5c30.1,0,60.2,0,90.4,0c4.2,0,8.5,0,12.7,0c7.8,0,15.4-6.9,15-15c-0.4-8.1-6.6-15-15-15c-30.1,0-60.2,0-90.4,0
			c-4.2,0-8.5,0-12.7,0c-7.8,0-15.4,6.9-15,15C309.3,489.6,315.5,496.5,323.9,496.5L323.9,496.5z"/>
	</g>
</g>
<g>
	<g>
		<path d="M655.3,157.9c-34.9-17.6-72.5-23.5-111.2-26.1c-8-0.5-16-1-24-1.6c-3.9-0.3-7.8-0.6-11.8-1c-1.9-0.2-3.8-0.4-5.7-0.6
			c-1.8-0.2-1.9-0.2-0.2,0c-0.7-0.1-1.4-0.2-2.1-0.3c-6.8-1.1-13.6-2.5-20.2-4.6c-1.6-0.5-3.2-1.1-4.9-1.7c-1.6-0.6-1.6-0.6,0,0.1
			c-0.8-0.3-1.5-0.7-2.3-1c-3-1.4-6-3.1-8.8-4.9c-6.8-4.4-16.6-1.4-20.5,5.4c-4.3,7.3-1.4,16.1,5.4,20.5
			c26,16.8,58.8,17.6,88.7,19.5c35.5,2.2,69.5,5.8,102.4,22.4c7.2,3.6,16.3,1.9,20.5-5.4C664.6,171.7,662.6,161.6,655.3,157.9
			L655.3,157.9z"/>
	</g>
</g>
</svg>
