<?xml version="1.0" encoding="utf-8"?>
<!-- Generator: Adobe Illustrator 21.0.0, SVG Export Plug-In . SVG Version: 6.00 Build 0)  -->
<svg version="1.1" id="Layer_1" xmlns="http://www.w3.org/2000/svg" xmlns:xlink="http://www.w3.org/1999/xlink" x="0px" y="0px"
	 viewBox="0 0 750 750" enable-background="new 0 0 750 750" xml:space="preserve">
<linearGradient id="SVGID_1_" gradientUnits="userSpaceOnUse" x1="375.25" y1="67.7499" x2="375.25" y2="683.5">
	<stop  offset="4.848460e-02" style="stop-color:#66FFAA"/>
	<stop  offset="9.967329e-02" style="stop-color:#60FFA1"/>
	<stop  offset="0.1844" style="stop-color:#51FF88"/>
	<stop  offset="0.2921" style="stop-color:#39FF5F"/>
	<stop  offset="0.4174" style="stop-color:#17FF26"/>
	<stop  offset="0.4946" style="stop-color:#00FF00"/>
	<stop  offset="0.6038" style="stop-color:#03DF00"/>
	<stop  offset="0.8419" style="stop-color:#0B8E00"/>
	<stop  offset="1" style="stop-color:#115500"/>
</linearGradient>
<circle fill="url(#SVGID_1_)" stroke="#000000" stroke-width="35" stroke-miterlimit="10" cx="375.3" cy="372.3" r="337.3"/>
<linearGradient id="SVGID_2_" gradientUnits="userSpaceOnUse" x1="375.25" y1="91.342" x2="375.25" y2="656.6005">
	<stop  offset="0" style="stop-color:#00FF44"/>
	<stop  offset="0.1158" style="stop-color:#00FF3F"/>
	<stop  offset="0.2444" style="stop-color:#00FF32"/>
	<stop  offset="0.3785" style="stop-color:#00FF1C"/>
	<stop  offset="0.5054" style="stop-color:#00FF00"/>
	<stop  offset="0.5836" style="stop-color:#02F000"/>
	<stop  offset="0.7337" style="stop-color:#07C900"/>
	<stop  offset="0.9385" style="stop-color:#0E8B00"/>
	<stop  offset="1" style="stop-color:#117700"/>
</linearGradient>
<circle fill="url(#SVGID_2_)" cx="375.3" cy="372.3" r="309.6"/>
<circle cx="223.8" cy="311.8" r="84.2"/>
<circle fill="#FFFFFF" cx="190.5" cy="283.9" r="25.3"/>
<circle cx="526.8" cy="311.8" r="84.2"/>
<circle fill="#FFFFFF" cx="492.5" cy="283.9" r="25.3"/>
<path d="M647.8,408.5c0,0-81.8,125.5-264.8,125.5C179,534,97,405,97,405s117.1,92.9,286.1,92.9C517.8,497.9,647.8,408.5,647.8,408.5
	z"/>
<path d="M78,227.7c0,0,32-85.7,122-101.7s125.8,37.9,125.8,37.9s-88-19.5-142.3,0C110.9,190,78,227.7,78,227.7z"/>
<path d="M666.4,227.7c0,0-30.6-81.7-121-100.7s-130.8,36.9-130.8,36.9s87-19.5,141.3,0C628.5,190,666.4,227.7,666.4,227.7z"/>
</svg>
